# xmcd CD database file
#
# Track frame offsets:
#	150
#	12876
#	25268
#	37374
#	48520
#	61398
#	72575
#	89774
#	102090
#	118668
#	128500
#	144518
#
# Disc length: 2104 seconds
#
# Revision: 0
# Processed by: cddbd v1.5.1PL0 Copyright (c) Steve Scherf et al.
# Submitted via: CDex 1.51
#
DISCID=ad08360c
DTITLE=ORPHEUS - こどものゆめ
DYEAR=1900
DGENRE=Other
TTITLE0=モーツアルトの子守歌
TTITLE1=シューベルトの子守歌
TTITLE2=ブラームスの子守歌
TTITLE3=アイルランドの子守歌
TTITLE4=子守歌　〜組曲「ドリー」Oｐ.５６より
TTITLE5=ゆりかごの歌
TTITLE6=ねむの木の子守歌
TTITLE7=ロッカバイ・ベイビー
TTITLE8=タイスの瞑想曲
TTITLE9=眠れ吾児
TTITLE10=愛の夢
TTITLE11=ソレアード　〜ホエン・チャイルド・イズ・ボーン〜
EXTD=
EXTT0=
EXTT1=
EXTT2=
EXTT3=
EXTT4=
EXTT5=
EXTT6=
EXTT7=
EXTT8=
EXTT9=
EXTT10=
EXTT11=
PLAYORDER=
